<svg xmlns="http://www.w3.org/2000/svg" viewBox="0 0 340.871 87.327"><defs><style>.cls-1{fill:#b3b3b4;}.cls-2{fill:#046b8c;fill-rule:evenodd;}</style></defs><title>Without Slogan Color</title><g id="Layer_2" data-name="Layer 2"><g id="Layer_1-2" data-name="Layer 1"><path class="cls-1" d="M63.567,37.781c0,2.956-.508,4.7-3.116,5.3v.174c2.608.608,3.116,2.348,3.116,5.3v6.521c0,3.043-.435,3.825-2.609,5.3l-4.42,3.043c-1.594,1.13-1.738,1.217-3.695,1.217H29.457c-2.319,0-3.622-1.217-3.622-4.347s1.3-4.348,3.622-4.348H52.843l3.478-2.348V49.868L52.843,47.52H30.02a3.962,3.962,0,0,1-4.275-4.347,3.963,3.963,0,0,1,4.275-4.348H52.843l3.478-2.347V32.738l-3.478-2.347H29.457c-2.319,0-3.622-1.218-3.622-4.348s1.3-4.347,3.622-4.347H52.843c1.956,0,2.1.086,3.695,1.217l4.42,3.044c2.174,1.478,2.609,2.261,2.609,5.3v6.521Z"/><path class="cls-2" d="M109.313,27.643h14.4c7.561,0,11.007,3.857,11.007,9.9a7.679,7.679,0,0,1-3.394,6.772c2.932,2.314,3.394,4.586,3.394,7.758,0,5.615-4.475,8.915-11.007,8.915h-14.4V27.643Zm5.144,29.06h9.258c3.7,0,5.864-1.371,5.864-4.629,0-3.6-1.183-5.615-5.864-5.615h-9.258V56.7Zm0-14.53h9.258c3.7,0,5.864-1.371,5.864-4.629,0-3.6-1.183-5.614-5.864-5.614h-9.258V42.173Z"/><path class="cls-2" d="M159.06,43.073V40.715c0-1.414.36-2.828,2.468-2.828S164,39.3,164,40.715v1.672A4.637,4.637,0,0,1,163.38,45L150.933,67.59c-1.08,1.929-1.646,2.143-3.909,2.143h-3.806c-1.44,0-3.395-.257-3.395-2.058,0-1.757,1.749-2.057,3.395-2.057h3.394l3.652-6.3h-.257c-2.057,0-2.16-.772-2.931-2.186l-6.07-11.187a7.047,7.047,0,0,1-1.182-3.386V40.715c0-1.414.36-2.828,2.469-2.828s2.469,1.414,2.469,2.828v2.358L151.4,55.2h1.08l6.584-12.13Z"/><path class="cls-2" d="M176.069,53.231c0,2.315-.1,3.644,3.292,3.644h2.52c2.006,0,2.932-.129,3.446-1.8A2.464,2.464,0,0,1,187.8,53.4a2.312,2.312,0,0,1,2.52,2.058,5.652,5.652,0,0,1-1.7,3.429c-1.8,1.8-4.166,2.1-6.79,2.1h-2.52a8.972,8.972,0,0,1-6.378-2.058c-1.9-1.757-1.8-3.515-1.8-5.743V42h-1.595c-1.44,0-3.395-.258-3.395-2.058,0-1.757,1.749-2.057,3.395-2.057h1.595v-4.2c0-1.415.36-2.829,2.469-2.829s2.469,1.414,2.469,2.829v4.2h8.281c1.646,0,3.395.3,3.395,2.057,0,1.8-1.955,2.058-3.395,2.058h-8.281V53.231Z"/><path class="cls-2" d="M202.514,60.99c-2.057,0-2.88,0-4.423-1.115l-2.108-1.543c-1.955-1.457-2.52-2.4-2.52-4.629V45.774c0-2.186.36-3.471,2.417-4.929l1.749-1.243a7.459,7.459,0,0,1,5.452-1.714h4.526a8,8,0,0,1,5.453,1.5l2.006,1.328c2.263,1.5,2.572,3.087,2.572,5.358v3.3c0,2.358-.463,3.043-3.395,3.043H198.4v1.372a1.911,1.911,0,0,0,.72,1.2l1.235,1.114c.668.6,1.646.772,3.292.772h10.6c1.646,0,3.395.3,3.395,2.057,0,1.8-1.954,2.058-3.395,2.058ZM198.4,48.3h14.3V45.817c0-.772.052-1.414-.618-1.929l-1.9-1.371A4.048,4.048,0,0,0,207.813,42h-4.167a4.631,4.631,0,0,0-2.52.472l-1.7,1.028a1.8,1.8,0,0,0-1.029,1.886V48.3Z"/><path class="cls-2" d="M241.019,60.773c-1.749,0-2.777-.3-3.137-1.843h-.1c-.361,1.543-1.389,1.843-3.138,1.843h-3.858c-1.8,0-2.263-.257-3.137-1.543l-1.8-2.615a2.646,2.646,0,0,1-.72-2.186V29.57c0-1.371.72-2.143,2.572-2.143s2.572.771,2.572,2.143V54.43l1.389,2.057h2.211l1.389-2.057v-13.5a2.573,2.573,0,0,1,5.144,0v13.5l1.389,2.057H244l1.388-2.057V29.57c0-1.371.721-2.143,2.572-2.143s2.572.771,2.572,2.143V54.43a2.646,2.646,0,0,1-.72,2.186l-1.8,2.615c-.875,1.285-1.337,1.543-3.137,1.543Z"/><path class="cls-2" d="M258.207,45.343c0-2.743.669-3.686,3.137-5.358,2.418-1.672,3.549-2.315,7-2.315h3.91c3.446,0,4.578.643,6.994,2.315,2.469,1.672,3.138,2.614,3.138,5.358V53.1c0,2.7-.823,3.729-3.395,5.529a9.185,9.185,0,0,1-6.738,2.143h-3.91A9.185,9.185,0,0,1,261.6,58.63c-2.572-1.8-3.395-2.829-3.395-5.529V45.343Zm4.938,7.758c0,.857.359,1.414,1.8,2.442a5,5,0,0,0,3.394,1.115h3.91a5.006,5.006,0,0,0,3.394-1.115c1.44-1.028,1.8-1.585,1.8-2.442V45.343c0-.858-.36-1.414-1.8-2.443a5.007,5.007,0,0,0-3.394-1.114h-3.91a5,5,0,0,0-3.394,1.114c-1.441,1.029-1.8,1.586-1.8,2.443V53.1Z"/><path class="cls-2" d="M290.29,40.714c0-1.5.206-3.043,2.468-3.043,1.954,0,2.469,1.372,2.469,2.744v1.671l3.858-2.658a8.1,8.1,0,0,1,4.371-1.757h3.961a7.242,7.242,0,0,1,4.835,1.629,5.531,5.531,0,0,1,2.212,4.672c0,1.414-.309,2.872-2.418,2.872a2.329,2.329,0,0,1-2.52-2.529,2.349,2.349,0,0,0-.515-1.8c-.617-.728-1.8-.728-2.983-.728h-1.441a4.182,4.182,0,0,0-2.468.986l-6.893,4.758V57.944c0,1.415-.36,2.829-2.469,2.829s-2.468-1.415-2.468-2.829V40.714Z"/><path class="cls-2" d="M325.442,49.243l-7.561-7.457c-.566-.6-1.183-1.157-1.183-1.929a2.358,2.358,0,0,1,2.469-2.186c1.491,0,2.468,1.286,3.343,2.186l6.275,6.429,6.275-6.429c.874-.9,1.851-2.186,3.344-2.186a2.357,2.357,0,0,1,2.468,2.186c0,.772-.617,1.329-1.183,1.929l-7.561,7.457,7.561,7.458c.566.6,1.183,1.157,1.183,1.929a2.325,2.325,0,0,1-2.468,2.143c-1.492,0-2.469-1.243-3.344-2.143L328.784,52.2l-6.275,6.429c-.874.9-1.851,2.143-3.343,2.143A2.325,2.325,0,0,1,316.7,58.63c0-.772.617-1.329,1.183-1.929l7.561-7.458Z"/><path class="cls-2" d="M43.778,81.24A37.225,37.225,0,1,0,6.555,44.014,37.3,37.3,0,0,0,43.778,81.24Zm-.117,6.087A43.664,43.664,0,1,0,0,43.664,43.74,43.74,0,0,0,43.661,87.327Z"/></g></g></svg>